<?xml version="1.0" standalone="no"?>
<!DOCTYPE svg PUBLIC "-//W3C//DTD SVG 20010904//EN"
 "http://www.w3.org/TR/2001/REC-SVG-20010904/DTD/svg10.dtd">
<svg version="1.0" xmlns="http://www.w3.org/2000/svg"
 width="3000.000000pt" height="3000.000000pt" viewBox="0 0 3000.000000 3000.000000"
 preserveAspectRatio="xMidYMid meet">

<g transform="translate(0.000000,3000.000000) scale(0.100000,-0.100000)"
fill="#000000" stroke="none">
<path d="M15337 23340 c-58 -182 -96 -369 -117 -576 -6 -60 -15 -145 -19 -189
l-8 -80 -2 75 c-2 114 -29 328 -61 492 -35 175 -101 389 -111 361 -4 -10 -12
-83 -19 -162 -56 -698 -319 -1532 -719 -2281 l-98 -184 21 -19 21 -18 -22 13
c-17 9 -25 10 -34 1 -9 -9 -6 -10 11 -6 13 3 21 2 18 -3 -4 -5 23 -9 60 -9
106 -1 202 -16 229 -37 7 -5 16 -7 22 -4 5 3 11 1 13 -6 2 -6 20 -11 41 -10
24 1 36 -3 34 -11 -1 -6 8 -13 21 -15 12 -2 22 -8 22 -13 0 -5 6 -9 13 -9 6 0
25 -7 41 -15 15 -8 33 -12 39 -8 6 4 7 1 2 -7 -6 -10 -4 -12 8 -7 10 4 16 2
14 -5 -1 -5 6 -12 15 -13 10 -2 17 0 16 3 -1 4 13 38 31 76 195 423 343 1012
369 1477 l8 124 7 -95 c28 -355 71 -594 162 -920 64 -229 224 -650 247 -650 5
0 7 -4 3 -9 -10 -17 28 -4 99 33 38 20 75 36 82 36 8 0 14 4 14 9 0 5 25 15
55 22 30 7 55 16 55 20 0 8 101 27 203 38 55 6 67 5 63 -6 -4 -9 2 -8 18 4 13
10 21 20 17 23 -23 18 -285 550 -374 760 -267 631 -402 1163 -465 1835 l-8 80
-37 -115z"/>
<path d="M11695 22535 c192 -457 323 -968 384 -1500 35 -297 44 -471 44 -805
1 -441 -19 -698 -89 -1188 -85 -596 -54 -1095 98 -1570 335 -1051 1104 -1657
2278 -1798 157 -19 594 -25 685 -10 l50 8 -90 25 c-674 182 -1177 454 -1570
847 -363 364 -585 761 -710 1269 -98 397 -117 796 -60 1252 107 848 2 1698
-296 2409 -167 397 -419 787 -664 1026 -75 74 -76 74 -60 35z"/>
<path d="M18618 22480 c-391 -412 -687 -982 -843 -1622 -84 -348 -123 -651
-132 -1043 -6 -289 5 -501 39 -750 20 -138 23 -203 22 -480 0 -282 -2 -337
-22 -465 -92 -588 -292 -1035 -646 -1447 -379 -440 -988 -792 -1681 -971 -104
-27 -107 -29 -70 -35 170 -27 546 -16 820 24 811 117 1436 487 1837 1089 80
121 220 400 273 543 120 329 181 655 192 1032 7 234 -6 416 -47 697 -186 1246
-81 2431 301 3382 26 67 46 123 43 126 -3 2 -41 -34 -86 -80z"/>
<path d="M9524 20815 c689 -775 1183 -1832 1436 -3075 50 -244 77 -351 131
-517 120 -368 291 -693 529 -1003 102 -132 373 -400 502 -496 451 -336 955
-489 1553 -471 346 11 644 66 992 183 117 40 290 110 338 138 l30 17 -40 -5
c-22 -3 -128 -10 -235 -17 -474 -27 -967 38 -1360 181 -262 95 -569 270 -780
445 -490 406 -857 1031 -1011 1725 -96 431 -217 782 -398 1155 -153 315 -327
594 -527 845 -130 163 -428 463 -579 584 -150 120 -351 252 -494 325 -183 94
-183 94 -87 -14z"/>
<path d="M20820 20847 c-576 -290 -1109 -824 -1491 -1492 -235 -411 -433 -932
-538 -1418 -79 -364 -218 -715 -406 -1026 -293 -488 -710 -863 -1205 -1086
-475 -214 -1081 -301 -1709 -245 -58 6 -106 8 -108 6 -7 -7 248 -110 387 -156
394 -132 759 -188 1140 -177 385 11 682 83 1006 242 524 257 953 711 1244
1318 135 281 212 523 291 907 152 744 365 1368 670 1958 201 390 455 772 706
1062 118 135 147 170 141 170 -2 0 -60 -28 -128 -63z"/>
<path d="M14805 19363 c-82 -7 -262 -45 -355 -75 -93 -30 -325 -120 -445 -173
-159 -70 -455 -230 -455 -245 0 -17 228 -213 325 -280 275 -190 456 -299 640
-386 164 -77 182 -84 182 -68 0 7 -4 11 -7 9 -4 -3 -18 23 -31 58 -34 91 -39
239 -9 327 40 122 151 250 255 295 17 7 48 21 70 31 l40 18 -75 23 c-190 59
-488 103 -700 103 -117 0 -331 -23 -424 -44 -122 -29 -81 -10 71 33 174 48
217 57 383 76 597 71 1206 -120 1740 -545 206 -164 580 -565 580 -621 0 -16
-25 2 -107 78 -267 244 -522 433 -807 597 -115 66 -117 67 -121 43 -2 -9 0
-15 4 -13 3 2 11 -7 18 -20 8 -18 8 -22 0 -17 -7 4 -5 -4 4 -17 46 -73 48
-216 6 -333 -42 -115 -138 -230 -224 -268 -18 -7 -33 -18 -33 -22 0 -5 -4 -6
-8 -3 -4 2 -14 0 -22 -5 -13 -9 -13 -10 0 -8 8 1 22 -1 30 -4 30 -13 240 -57
361 -76 228 -37 392 -52 642 -58 168 -4 247 -10 247 -17 0 -34 -36 -209 -65
-324 -145 -554 -486 -1089 -988 -1550 -74 -67 -142 -129 -153 -137 -30 -23
-14 -18 91 26 406 168 791 424 1090 724 218 218 373 430 495 680 166 341 233
640 234 1045 1 230 -9 347 -45 540 -29 153 -26 148 -61 98 -42 -58 -188 -199
-244 -236 -10 -7 -32 -21 -49 -32 -16 -10 -35 -23 -41 -28 -6 -5 -27 -15 -47
-23 -20 -7 -37 -16 -37 -20 0 -4 -11 -10 -25 -13 -16 -4 -23 -11 -19 -18 4 -7
3 -8 -5 -4 -6 4 -14 0 -17 -9 -5 -13 -9 -14 -15 -4 -4 7 -3 19 3 26 8 10 7 12
-6 7 -9 -3 -16 -2 -16 3 0 28 -131 201 -219 290 -362 364 -907 578 -1458 571
-76 -1 -156 -3 -178 -5z"/>
<path d="M13187 18894 c-7 -12 -33 -139 -52 -260 -22 -136 -31 -519 -16 -665
41 -391 165 -737 380 -1060 207 -312 492 -591 837 -819 206 -137 467 -274 654
-344 l45 -16 -75 66 c-117 105 -358 350 -441 449 -285 341 -469 660 -589 1024
-104 312 -135 531 -127 886 3 132 9 251 13 265 7 23 6 24 -10 11 -15 -12 -17
-12 -14 0 2 8 -3 13 -10 11 -8 -1 -11 2 -7 7 3 6 13 8 23 5 15 -5 15 -5 -1 6
-9 6 -22 8 -27 5 -6 -3 -10 -1 -10 4 0 6 -6 11 -13 11 -7 0 -31 9 -53 19 -22
11 -52 23 -67 26 -15 4 -27 11 -27 17 0 5 -4 6 -10 3 -5 -3 -10 -1 -10 4 0 6
-7 11 -15 11 -8 0 -15 4 -15 9 0 5 -16 16 -35 25 -19 9 -38 23 -42 31 -4 7
-14 15 -22 17 -8 2 -32 20 -53 41 -21 20 -41 37 -44 37 -8 0 -96 93 -114 120
-31 46 -47 63 -53 54z"/>
<path d="M15087 15560 c-277 -138 -737 -292 -1019 -340 l-68 -12 28 -50 c167
-301 573 -552 1035 -637 l117 -22 110 21 c415 79 754 264 959 524 51 65 106
154 99 161 -2 2 -58 16 -123 30 -331 71 -706 199 -967 331 -37 19 -73 34 -80
33 -7 0 -48 -18 -91 -39z"/>
<path d="M28041 15189 c-58 -11 -163 -61 -214 -101 -129 -102 -203 -294 -177
-460 44 -292 333 -486 615 -413 181 48 328 198 366 375 6 30 9 94 7 146 -5 82
-10 101 -46 175 -103 212 -322 323 -551 278z m227 -327 c63 -51 87 -96 87
-167 -2 -232 -309 -287 -403 -72 -18 41 -14 106 8 155 23 51 36 65 92 98 36
21 53 24 109 22 56 -3 71 -8 107 -36z"/>
<path d="M5641 14959 c-2 -35 -133 -452 -199 -634 -323 -886 -864 -1912 -1453
-2757 -49 -70 -89 -131 -89 -136 0 -4 -33 -4 -72 1 -112 14 -568 13 -683 -1
-176 -23 -386 -70 -550 -123 -452 -146 -923 -359 -1344 -608 l-94 -55 89 -84
c280 -263 626 -521 972 -727 73 -43 131 -82 130 -86 -5 -12 -231 -195 -383
-309 -154 -115 -350 -247 -620 -415 -317 -198 -519 -354 -576 -444 -32 -50
-35 -83 -18 -176 30 -161 115 -220 319 -218 86 0 121 6 190 28 264 85 539 287
1009 740 153 147 381 380 492 502 l57 62 61 -29 c33 -16 61 -27 61 -24 0 2 11
-3 24 -11 13 -9 26 -12 29 -8 7 12 -8 47 -27 62 -9 7 -16 19 -16 26 0 7 -7 26
-15 41 -8 16 -15 40 -15 54 0 14 -7 47 -15 74 -26 85 -18 300 14 371 5 11 15
41 21 68 7 26 20 52 29 57 10 6 11 9 3 10 -9 0 -10 4 -2 13 16 19 60 87 60 93
0 12 82 99 98 105 10 3 17 11 17 17 0 15 98 90 159 121 29 15 86 38 127 51 41
13 79 27 84 32 7 6 7 9 0 7 -5 -1 -23 3 -40 10 -52 22 -310 89 -442 115 -239
47 -519 76 -750 76 -289 0 -668 -57 -934 -140 -51 -16 -95 -28 -97 -26 -9 10
333 122 518 170 321 84 601 120 935 120 252 0 365 -9 605 -50 657 -112 1308
-429 1895 -923 336 -284 680 -659 911 -995 l76 -111 -173 170 c-337 330 -640
578 -1034 847 -218 149 -615 382 -615 361 0 -4 -5 -1 -11 7 -9 13 -10 13 -6 0
2 -8 10 -14 17 -12 10 2 10 -1 3 -10 -11 -14 19 -52 33 -40 4 4 4 2 1 -5 -4
-6 -2 -17 5 -25 7 -7 14 -24 14 -38 1 -14 9 -43 17 -66 23 -59 40 -206 34
-283 -8 -98 -28 -202 -42 -226 -27 -44 -74 -135 -69 -135 3 0 -4 -10 -16 -22
-11 -12 -20 -25 -20 -29 0 -14 -169 -177 -190 -184 -11 -3 -20 -11 -20 -16 0
-5 -9 -9 -19 -9 -11 0 -21 -4 -23 -9 -1 -4 -30 -22 -63 -40 -49 -25 -55 -31
-35 -33 38 -2 44 -3 55 -10 22 -13 331 -79 525 -112 426 -72 743 -98 1206
-100 l331 -1 512 -595 c282 -327 544 -625 584 -663 381 -357 838 -552 1378
-586 90 -6 346 -11 569 -11 l405 0 -170 78 c-207 95 -317 156 -500 278 -485
323 -901 774 -1262 1369 -201 330 -490 919 -683 1390 -226 552 -430 1180 -575
1770 -178 728 -467 1977 -636 2755 -56 260 -77 338 -78 299z m-491 -2377 c102
-611 251 -1297 386 -1791 6 -21 -3 -17 -72 33 -202 144 -477 292 -709 381
-125 48 -375 129 -438 140 -20 4 -39 11 -42 15 -3 5 46 86 108 182 240 366
419 675 605 1045 64 127 118 230 120 228 2 -2 21 -107 42 -233z"/>
<path d="M26346 14850 c-59 -173 -246 -547 -361 -720 -136 -206 -240 -313
-388 -403 -216 -131 -357 -248 -397 -331 -38 -80 -49 -76 210 -76 l230 0 0
-1174 c0 -704 4 -1225 10 -1302 32 -400 115 -547 333 -584 122 -22 287 12 432
88 242 127 529 438 725 786 l33 59 -94 -81 c-255 -221 -447 -332 -575 -333
-65 -1 -99 18 -126 72 -17 32 -18 112 -18 1255 l0 1221 83 7 c46 4 131 18 189
31 167 37 237 81 312 194 75 112 104 101 -263 101 l-321 0 -2 608 c-2 351 -7
596 -12 582z"/>
<path d="M10027 13796 c-108 -45 -158 -93 -274 -271 -89 -134 -193 -310 -192
-323 0 -4 28 -20 62 -37 165 -81 362 -251 438 -381 95 -160 123 -276 123 -504
1 -261 -33 -393 -181 -720 -69 -152 -156 -324 -173 -343 -25 -29 -394 667
-693 1308 -235 502 -422 810 -607 996 -185 187 -300 217 -505 132 -218 -91
-549 -421 -867 -866 -48 -67 -85 -123 -84 -125 2 -2 26 11 54 27 77 48 309
156 392 184 147 49 310 63 434 37 49 -10 66 -20 103 -57 177 -182 574 -932
1026 -1937 l243 -539 -146 -196 c-394 -530 -611 -864 -690 -1067 -72 -185 -92
-284 -97 -497 -7 -261 17 -402 95 -551 112 -214 338 -336 722 -388 151 -20
522 -17 650 6 262 46 542 174 659 301 131 142 205 341 217 585 l6 105 -74
-145 c-209 -414 -365 -540 -693 -557 -320 -16 -551 121 -728 433 -53 94 -109
247 -128 354 -21 116 -17 360 9 501 81 440 255 806 1080 2279 391 698 554
1028 592 1201 10 44 10 78 1 155 -21 176 -77 337 -168 478 -101 158 -282 360
-372 418 -60 37 -148 39 -234 4z"/>
<path d="M20747 13786 c-32 -14 -77 -37 -100 -53 -97 -66 -306 -303 -409 -463
-26 -41 -48 -78 -48 -82 0 -3 28 -25 63 -49 194 -132 358 -281 432 -393 89
-137 127 -279 127 -481 0 -263 -70 -519 -220 -805 -35 -68 -108 -185 -128
-209 -10 -12 -138 184 -242 370 -96 172 -308 599 -442 889 -336 729 -585 1079
-818 1146 -71 21 -138 9 -242 -43 -214 -108 -658 -508 -874 -788 -111 -143
-111 -141 7 -85 119 56 351 140 453 165 62 15 84 16 157 6 216 -29 341 -113
455 -306 75 -127 314 -612 487 -990 157 -341 296 -623 420 -850 87 -158 302
-522 313 -529 4 -2 38 66 76 152 167 381 415 846 730 1370 279 463 401 692
471 877 l37 100 -5 130 c-11 238 -80 418 -245 637 -144 192 -283 308 -366 308
-17 0 -57 -11 -89 -24z"/>
<path d="M11469 13684 c-185 -33 -346 -128 -505 -297 -69 -73 -194 -237 -180
-237 2 0 37 18 78 39 116 63 185 85 258 86 81 0 114 -19 143 -83 22 -47 22
-47 28 -1157 6 -1085 6 -1113 27 -1224 25 -127 70 -270 111 -345 37 -69 111
-143 173 -171 181 -83 472 -39 722 109 151 89 389 290 640 539 81 81 149 147
151 147 1 0 5 -111 7 -247 5 -226 8 -255 30 -328 57 -189 157 -259 368 -259
111 0 178 17 294 75 128 64 201 122 391 313 165 165 319 344 405 470 33 49 33
49 -73 -40 -204 -171 -373 -256 -512 -257 -76 0 -103 9 -152 56 l-33 31 0
1399 0 1399 -77 -7 c-195 -18 -341 -84 -469 -210 -55 -54 -92 -101 -114 -144
-59 -119 -60 -124 -60 -924 l0 -728 -25 -76 c-47 -139 -129 -258 -290 -418
-114 -115 -210 -189 -305 -237 -62 -31 -70 -33 -175 -33 -99 0 -115 3 -160 26
-64 33 -99 83 -127 184 -22 79 -22 87 -28 1080 -6 874 -9 1009 -23 1074 -27
121 -56 220 -76 259 -66 129 -222 176 -442 136z"/>
<path d="M15448 13671 c-202 -79 -634 -520 -799 -816 l-33 -60 67 62 c38 34
104 80 149 103 133 69 235 65 292 -13 21 -28 21 -31 24 -1361 l2 -1333 53 9
c79 14 195 55 262 93 74 41 210 142 321 238 l84 72 0 734 0 735 77 100 c270
354 432 545 517 614 93 76 140 96 216 97 111 0 171 -47 222 -173 20 -51 22
-74 22 -227 0 -148 -3 -186 -28 -299 -15 -70 -38 -160 -51 -200 l-24 -71 227
230 c446 451 567 607 628 810 27 88 25 248 -4 340 -42 137 -148 262 -260 307
-48 19 -75 22 -177 22 -105 0 -130 -4 -199 -28 -158 -54 -302 -153 -456 -312
-86 -89 -256 -313 -631 -832 l-74 -103 -6 348 c-12 599 -43 787 -147 873 -70
58 -186 75 -274 41z"/>
<path d="M28165 13680 c-160 -32 -329 -144 -531 -352 -114 -118 -182 -205
-204 -263 -12 -32 -11 -31 85 43 155 120 255 173 342 180 67 5 89 -5 116 -53
9 -15 13 -354 17 -1285 5 -1194 6 -1268 24 -1320 39 -118 78 -184 150 -256 95
-95 151 -118 291 -117 278 0 492 140 714 468 37 55 72 107 76 115 9 14 -8 2
-140 -104 -123 -100 -241 -132 -307 -84 -17 11 -42 46 -57 77 l-26 56 -6 1220
c-5 1080 -7 1228 -22 1286 -57 232 -144 345 -294 384 -61 16 -162 18 -228 5z"/>
<path d="M23645 13639 c-310 -29 -643 -136 -886 -284 -655 -399 -980 -1080
-956 -2004 3 -117 12 -245 21 -296 48 -279 155 -496 321 -653 130 -124 268
-169 421 -139 104 21 240 89 362 181 127 96 398 343 693 633 l237 233 5 -267
c5 -293 11 -334 69 -453 58 -120 244 -276 381 -321 60 -20 73 -21 142 -10 161
24 308 112 491 295 79 78 142 152 179 209 31 49 55 90 53 93 -3 2 -70 -32
-149 -77 -224 -126 -307 -155 -369 -129 -64 26 -60 -73 -60 1535 l0 1465 -432
-1 c-238 -1 -473 -6 -523 -10z m215 -1082 l0 -882 -85 -70 c-177 -145 -383
-266 -534 -314 -138 -44 -288 -46 -387 -5 -100 41 -202 158 -244 277 -46 131
-55 201 -55 432 0 243 14 334 77 514 100 286 310 573 526 720 191 129 391 191
680 210 l22 1 0 -883z"/>
<path d="M11725 8740 c-326 -46 -529 -221 -613 -528 l-26 -97 -1 -465 c0 -452
1 -467 23 -555 38 -148 91 -246 187 -342 125 -125 257 -183 469 -203 348 -34
618 112 766 415 48 98 100 254 100 301 l0 24 -208 0 -208 0 -12 -45 c-32 -119
-114 -225 -204 -266 -69 -31 -196 -33 -278 -5 -79 28 -159 110 -190 196 -23
63 -24 77 -28 428 -2 234 0 387 8 433 20 135 84 228 190 278 48 22 68 26 155
26 114 0 152 -14 231 -87 46 -42 109 -154 120 -214 l6 -34 213 0 213 0 -14 63
c-83 363 -279 591 -567 662 -81 19 -248 27 -332 15z"/>
<path d="M20881 8739 c-349 -43 -567 -225 -621 -518 -14 -78 -12 -225 5 -306
23 -107 64 -181 144 -258 110 -107 219 -146 562 -206 210 -36 263 -52 318 -91
110 -80 119 -222 21 -321 -166 -166 -622 -134 -912 62 -31 22 -59 39 -62 39
-6 0 -186 -316 -186 -327 0 -11 142 -105 208 -137 197 -98 479 -147 722 -126
156 14 253 39 369 96 218 108 331 297 331 559 0 171 -40 290 -131 389 -109
120 -231 172 -578 246 -106 23 -218 51 -249 62 -74 28 -146 98 -162 158 -38
143 55 252 242 287 188 34 405 -12 593 -126 37 -23 68 -41 69 -41 1 0 40 77
86 171 l85 170 -25 19 c-43 32 -191 107 -270 135 -169 60 -389 86 -559 64z"/>
<path d="M12980 7650 l0 -1080 200 0 200 0 0 435 0 435 390 0 390 0 0 -435 0
-435 205 0 205 0 -2 1078 -3 1077 -202 3 -203 2 0 -450 0 -450 -387 2 -388 3
-3 448 -2 447 -200 0 -200 0 0 -1080z"/>
<path d="M15010 7650 l0 -1080 210 0 210 0 0 1080 0 1080 -210 0 -210 0 0
-1080z"/>
<path d="M15880 7650 l0 -1080 205 0 205 0 0 235 0 235 141 198 c78 108 147
203 154 210 9 10 66 -82 266 -432 l254 -445 243 -1 243 0 -25 43 c-14 23 -178
307 -365 631 l-340 590 33 45 c18 25 163 226 321 446 l287 400 -253 3 c-194 2
-256 -1 -264 -10 -7 -7 -164 -246 -351 -530 l-339 -516 -5 526 -5 527 -202 3
-203 2 0 -1080z"/>
<path d="M17830 7650 l0 -1080 210 0 210 0 0 1080 0 1080 -210 0 -210 0 0
-1080z"/>
<path d="M18520 8530 l0 -200 295 0 295 0 0 -880 0 -880 200 0 200 0 0 880 0
880 295 0 295 0 0 200 0 200 -790 0 -790 0 0 -200z"/>
<path d="M22672 8703 c-5 -16 -190 -499 -411 -1075 -221 -576 -401 -1050 -401
-1053 0 -3 98 -5 218 -5 l217 0 59 170 58 170 397 0 397 0 60 -170 59 -170
218 0 c171 0 218 3 215 13 -3 6 -189 492 -413 1080 l-408 1067 -128 0 -127 0
-10 -27z m266 -1026 c67 -193 122 -358 122 -364 0 -10 -57 -13 -250 -13 -193
0 -250 3 -250 13 -1 17 244 717 250 717 3 0 60 -159 128 -353z"/>
<path d="M24030 7650 l0 -1080 725 0 725 0 0 195 0 195 -520 0 -520 0 0 885 0
885 -205 0 -205 0 0 -1080z"/>
<path d="M26018 7668 c-224 -585 -410 -1071 -413 -1080 -7 -17 7 -18 212 -18
l219 0 60 170 59 170 396 0 397 0 47 -137 c27 -76 54 -153 61 -170 l13 -33
215 0 c119 0 216 3 216 6 0 5 -760 1998 -807 2117 l-15 37 -127 0 -127 0 -406
-1062z m666 -6 c65 -184 120 -340 123 -348 4 -12 -34 -14 -251 -14 -187 0
-256 3 -256 12 0 12 238 696 248 712 3 5 8 1 12 -10 4 -10 60 -169 124 -352z"/>
<path d="M27330 8726 c0 -3 142 -300 315 -662 l315 -657 0 -419 0 -418 205 0
205 0 0 414 0 415 315 657 c173 362 315 661 315 666 0 4 -94 8 -209 8 l-209 0
-202 -457 c-112 -252 -206 -461 -209 -465 -3 -4 -98 201 -211 455 l-206 462
-212 3 c-117 1 -212 0 -212 -2z"/>
</g>
</svg>
